<?xml version="1.0" encoding="utf-8"?>
<!DOCTYPE svg PUBLIC "-//W3C//DTD SVG 20010904//EN" "http://www.w3.org/TR/2001/REC-SVG-20010904/DTD/svg10.dtd">
<svg version="1.0" xmlns="http://www.w3.org/2000/svg" width="83px" height="71px" viewBox="0 0 83 71" preserveAspectRatio="xMidYMid meet">
 <g fill="#000000">
  <path d="M0 56.5 c0 -13.8 0.1 -14.5 2 -14.5 1.5 0 2 0.7 2 2.5 0 2.5 3.2 11.8 5 14.5 1.6 2.3 4.3 -1.5 3 -4.1 -0.6 -1 -1 -5.1 -1 -9.1 0 -5.7 0.6 -8.5 2.5 -12.6 1.4 -3 2.5 -6 2.5 -6.6 0 -0.7 -1.6 -1.8 -3.6 -2.4 l-3.6 -1.1 -2 4.7 c-1.2 2.6 -2.3 6.6 -2.6 8.9 -0.4 3.4 -0.9 4.3 -2.3 4.3 -1.8 0 -1.9 -1.1 -1.9 -20.5 l0 -20.5 19 0 c18.3 0 19 0.1 19 2 0 1.4 -0.7 2 -2.2 2 -2.5 0 -13.1 4.8 -16.3 7.4 -1.3 1 1.1 0.5 6.9 -1.4 11.7 -3.9 17.6 -3.9 29.1 0 4.9 1.6 9 2.8 9.3 2.6 0.8 -0.9 -9.4 -6.6 -14 -7.8 -3.5 -0.8 -4.8 -1.7 -4.8 -3 0 -1.7 1.3 -1.8 18.5 -1.8 l18.5 0 0 18.5 c0 15.8 -0.2 18.5 -1.5 18.5 -0.8 0 -1.5 -0.9 -1.5 -1.9 0 -1.1 -0.3 -2.1 -0.7 -2.3 -0.5 -0.1 -1.8 -2.4 -3 -5 l-2.2 -4.7 -4.6 1.5 c-2.5 0.9 -4.5 1.9 -4.5 2.2 0 0.4 1.4 3.4 3.1 6.7 2.9 5.6 3 6.6 2.7 15.2 -0.2 6.6 0.1 9.6 1 10.5 1.1 1.1 1.6 0.9 2.8 -0.7 0.8 -1.1 2 -3.7 2.6 -5.7 0.6 -2.1 1.5 -3.8 2 -3.8 0.4 0 0.8 -0.9 0.8 -2 0 -1.1 0.7 -2 1.5 -2 1.3 0 1.5 2.1 1.5 13 l0 13 -41.5 0 -41.5 0 0 -14.5z"/>
 </g>
 <g fill="#ffffff">
  <path d="M70.6 66.7 c-0.4 -2.2 -1.8 -4.6 -3.6 -6.1 -3.6 -2.9 -3.6 -3.1 -1 -6.3 3 -3.9 2.7 -10.7 -1 -17.9 -1.6 -3.2 -3 -7.1 -3 -8.6 0 -1.6 -0.1 -2.8 -0.2 -2.8 -0.2 0 -4.6 1.4 -9.8 3 -5.1 1.7 -10.4 3 -11.5 3 -1.2 0 -6.1 -1.3 -11 -3 -4.9 -1.7 -9.3 -3 -9.8 -3 -0.5 0 -0.8 1.2 -0.6 2.8 0.1 1.5 -1 5.2 -2.4 8.2 -3.3 6.8 -3.5 12.8 -0.5 18.1 l2.1 3.8 -2.6 2.6 c-1.4 1.5 -2.9 4 -3.2 5.6 -0.7 2.9 -0.8 3 -2.6 1.3 -3 -2.7 -7.8 -13.3 -9 -19.7 -4.2 -23.1 13.9 -45.8 37.8 -47.4 13.2 -0.9 23.8 3.2 32.8 12.8 14.4 15.4 15.1 37.8 1.7 54.8 l-1.9 2.4 -0.7 -3.6z m-13.6 -42 c7.4 -2.4 13.4 -4.8 13.3 -5.2 -0.2 -1.2 -26 -9.4 -29.3 -9.5 -3.5 0 -27.9 8.3 -28.1 9.5 -0.1 1.2 23.6 9.3 27.6 9.4 1.7 0.1 9.1 -1.9 16.5 -4.2z"/>
  <path d="M39.4 56.6 c-1.6 -3.3 -1.9 -3.4 -3.8 -2 -1.1 0.7 -3.7 1.4 -5.7 1.4 -2.9 0 -4.3 -0.7 -6.3 -3.1 -3.1 -3.7 -3.3 -6.3 -0.6 -10.7 1.2 -1.9 1.8 -4.2 1.5 -5.1 -0.5 -1.6 0 -1.7 3.7 -1.1 5.2 0.8 10.3 3.3 11.2 5.5 0.3 0.9 0.6 3 0.6 4.6 0 1.9 0.5 2.9 1.5 2.9 1 0 1.5 -1 1.5 -2.8 0 -5.4 3.7 -8.6 11.5 -10.1 4.2 -0.8 4.5 -0.7 4 1 -0.4 1.2 0.2 3 1.4 4.5 3.2 4.1 2.4 9.9 -1.8 13.1 -2.2 1.7 -7.7 1.6 -10.5 -0.2 -2.2 -1.5 -2.4 -1.4 -3.6 1.5 -1.8 4.4 -2.8 4.5 -4.6 0.6z m-4.1 -4.6 c2.8 -2.2 4.3 -6.8 2.8 -8.3 -0.8 -0.8 -1.1 -0.6 -1.1 0.6 0 1 -1.1 2.2 -2.5 2.9 -3.6 1.6 -5.9 -0.5 -5.2 -4.9 0.5 -3 0.4 -3.2 -1.3 -2.3 -4.3 2.3 -5.3 8.7 -2 12 2.5 2.5 6 2.5 9.3 0z m21.5 0.4 c2.8 -1.9 3.1 -8.3 0.5 -10.6 -3.5 -3 -4.4 -3.1 -3.3 -0.4 0.7 1.9 0.5 3 -0.9 4.7 -2.1 2.6 -5.3 2 -6.9 -1.4 -1 -2.1 -1.1 -2 -1.1 1.1 -0.2 6.4 6.6 10.2 11.7 6.6z"/>
 </g>
</svg>